<svg width="48" height="48" viewBox="0 0 48 48" fill="none" xmlns="http://www.w3.org/2000/svg">
<title>Instagram</title>
<desc>Instagram</desc>
<metadata><?xpacket begin="﻿" id="W5M0MpCehiHzreSzNTczkc9d"?>
<x:xmpmeta xmlns:x="adobe:ns:meta/" x:xmptk="Adobe XMP Core 8.0-c001 1.000000, 0000/00/00-00:00:00        ">
   <rdf:RDF xmlns:rdf="http://www.w3.org/1999/02/22-rdf-syntax-ns#">
      <rdf:Description rdf:about=""
            xmlns:dc="http://purl.org/dc/elements/1.1/"
            xmlns:tiff="http://ns.adobe.com/tiff/1.0/"
            xmlns:Iptc4xmpCore="http://iptc.org/std/Iptc4xmpCore/1.0/xmlns/">
         <dc:modified>2024-08-06T14:00:25.879Z</dc:modified>
         <dc:format>image/svg+xml</dc:format>
         <dc:description>
            <rdf:Alt>
               <rdf:li xml:lang="x-default">Instagram</rdf:li>
            </rdf:Alt>
         </dc:description>
         <dc:title>
            <rdf:Alt>
               <rdf:li xml:lang="x-default">Instagram</rdf:li>
            </rdf:Alt>
         </dc:title>
         <tiff:ImageLength>48</tiff:ImageLength>
         <tiff:ImageWidth>48</tiff:ImageWidth>
         <Iptc4xmpCore:CreatorContactInfo>
            <rdf:Description/>
         </Iptc4xmpCore:CreatorContactInfo>
      </rdf:Description>
   </rdf:RDF>
</x:xmpmeta>
                                                                                                    
                                                                                                    
                                                                                                    
                                                                                                    
                                                                                                    
                                                                                                    
                                                                                                    
                                                                                                    
                                                                                                    
                                                                                                    
                                                                                                    
                                                                                                    
                                                                                                    
                                                                                                    
                                                                                                    
                                                                                                    
                                                                                                    
                                                                                                    
                                                                              
<?xpacket end="w"?></metadata>
<path d="M15.6005 4H32.4005C38.8005 4 44.0005 9.2 44.0005 15.6V32.4C44.0005 35.4765 42.7784 38.427 40.6029 40.6024C38.4275 42.7779 35.477 44 32.4005 44H15.6005C9.20049 44 4.00049 38.8 4.00049 32.4V15.6C4.00049 12.5235 5.22263 9.57298 7.39805 7.39756C9.57347 5.22214 12.524 4 15.6005 4ZM15.2005 8C13.2909 8 11.4596 8.75857 10.1093 10.1088C8.75906 11.4591 8.00049 13.2904 8.00049 15.2V32.8C8.00049 36.78 11.2205 40 15.2005 40H32.8005C34.71 40 36.5414 39.2414 37.8917 37.8912C39.2419 36.5409 40.0005 34.7096 40.0005 32.8V15.2C40.0005 11.22 36.7805 8 32.8005 8H15.2005ZM34.5005 11C35.1635 11 35.7994 11.2634 36.2683 11.7322C36.7371 12.2011 37.0005 12.837 37.0005 13.5C37.0005 14.163 36.7371 14.7989 36.2683 15.2678C35.7994 15.7366 35.1635 16 34.5005 16C33.8374 16 33.2016 15.7366 32.7327 15.2678C32.2639 14.7989 32.0005 14.163 32.0005 13.5C32.0005 12.837 32.2639 12.2011 32.7327 11.7322C33.2016 11.2634 33.8374 11 34.5005 11ZM24.0005 14C26.6527 14 29.1962 15.0536 31.0716 16.9289C32.9469 18.8043 34.0005 21.3478 34.0005 24C34.0005 26.6522 32.9469 29.1957 31.0716 31.0711C29.1962 32.9464 26.6527 34 24.0005 34C21.3483 34 18.8048 32.9464 16.9294 31.0711C15.0541 29.1957 14.0005 26.6522 14.0005 24C14.0005 21.3478 15.0541 18.8043 16.9294 16.9289C18.8048 15.0536 21.3483 14 24.0005 14ZM24.0005 18C22.4092 18 20.8831 18.6321 19.7578 19.7574C18.6326 20.8826 18.0005 22.4087 18.0005 24C18.0005 25.5913 18.6326 27.1174 19.7578 28.2426C20.8831 29.3679 22.4092 30 24.0005 30C25.5918 30 27.1179 29.3679 28.2431 28.2426C29.3683 27.1174 30.0005 25.5913 30.0005 24C30.0005 22.4087 29.3683 20.8826 28.2431 19.7574C27.1179 18.6321 25.5918 18 24.0005 18Z" fill="black"/>
</svg>
